<?xml version="1.0" encoding="UTF-8"?>
<svg version="1.1" xmlns="http://www.w3.org/2000/svg" width="340" height="302">
<path d="M0 0 C1.90233269 -0.01247879 3.80464573 -0.02834576 5.70692444 -0.04734802 C10.87254876 -0.08811162 16.03692232 -0.07805925 21.20261836 -0.05651021 C25.51442683 -0.04332699 29.82600845 -0.05542657 34.13780791 -0.06771559 C44.30953623 -0.0965418 54.48066082 -0.08492979 64.65234375 -0.046875 C75.14733247 -0.00818791 85.64087532 -0.03106484 96.13576216 -0.0854035 C105.14576578 -0.13024639 114.15532583 -0.14008966 123.16542155 -0.12113374 C128.5470433 -0.10996654 133.92788636 -0.11136175 139.30943108 -0.14506721 C144.37031009 -0.17497312 149.42921103 -0.16101694 154.48993492 -0.11329079 C156.34667678 -0.10299181 158.20357645 -0.10801032 160.06022263 -0.1294899 C174.08552223 -0.27803461 174.08552223 -0.27803461 178.09936714 2.98779488 C179.68038748 5.305937 180.71456621 7.43965833 181.71899414 10.05102539 C182.48393171 11.42113424 183.26503084 12.78250421 184.07055664 14.12915039 C184.8319874 15.51779753 185.58968724 16.90849576 186.34399414 18.30102539 C190.74782652 26.34044981 195.27676718 34.30198104 199.87182617 42.23364258 C200.35893066 43.07958984 200.84603516 43.92553711 201.34790039 44.79711914 C201.78175049 45.54662842 202.21560059 46.2961377 202.66259766 47.06835938 C203.71899414 49.05102539 203.71899414 49.05102539 204.71899414 52.05102539 C192.46899414 61.05102539 192.46899414 61.05102539 186.71899414 61.05102539 C185.01586914 58.96899414 185.01586914 58.96899414 183.46899414 56.23852539 C182.94821289 55.34520508 182.42743164 54.45188477 181.89086914 53.53149414 C180.71899414 51.05102539 180.71899414 51.05102539 180.71899414 48.05102539 C180.05899414 48.05102539 179.39899414 48.05102539 178.71899414 48.05102539 C178.40671875 47.47658691 178.09444336 46.90214844 177.77270508 46.31030273 C176.34103102 43.68062163 174.90505112 41.05331538 173.46899414 38.42602539 C172.97786133 37.52239258 172.48672852 36.61875977 171.98071289 35.68774414 C171.49731445 34.80473633 171.01391602 33.92172852 170.51586914 33.01196289 C170.07597656 32.20549316 169.63608398 31.39902344 169.18286133 30.56811523 C168.69978516 29.73747559 168.21670898 28.90683594 167.71899414 28.05102539 C167.17058459 27.02607373 166.62217505 26.00112207 166.05714703 24.94511127 C163.98353633 21.78417021 163.98353633 21.78417021 160.59698963 21.27083874 C159.35872771 21.25688722 158.12046579 21.2429357 156.84468079 21.2285614 C155.80777352 21.20499635 155.80777352 21.20499635 154.74991864 21.18095523 C152.4335011 21.13594775 150.11907079 21.13384054 147.80224609 21.13183594 C146.14136907 21.10897042 144.48052382 21.08368775 142.81971741 21.0561676 C138.30703608 20.99030202 133.79496449 20.96393225 129.28185678 20.94868827 C126.46082788 20.93775791 123.63995872 20.91903806 120.81899071 20.8976841 C110.97251752 20.82418048 101.12651863 20.78504299 91.27978516 20.77441406 C82.10931088 20.76351522 72.94185346 20.67390215 63.77230102 20.54820031 C55.89433335 20.44400175 48.01736353 20.39776732 40.13871163 20.39567596 C35.43508337 20.39329935 30.7345251 20.36719873 26.03161049 20.28168297 C21.60334641 20.20296466 17.18068125 20.19658737 12.75203514 20.24464989 C11.13184226 20.25008251 9.51132381 20.23010756 7.89183044 20.18219376 C2.78255829 20.04031267 -1.48450289 20.16817499 -6.28100586 22.05102539 C-10.56809098 26.20892362 -12.8782505 31.6793309 -15.28100586 37.05102539 C-16.09320834 38.51791003 -16.91796996 39.97831024 -17.77709961 41.41821289 C-18.42611529 42.58644111 -19.07330256 43.7556873 -19.71850586 44.92602539 C-22.83034043 50.51406224 -26.02212411 56.04749929 -29.28100586 61.55102539 C-34.07274271 69.64881895 -38.70447353 77.83004471 -43.28100586 86.05102539 C-43.83272461 87.04102539 -44.38444336 88.03102539 -44.95288086 89.05102539 C-46.0646519 91.0497149 -47.17454726 93.04939174 -48.28100586 95.05102539 C-48.94100586 95.05102539 -49.60100586 95.05102539 -50.28100586 95.05102539 C-50.37768555 95.75614258 -50.47436523 96.46125977 -50.57397461 97.18774414 C-51.40298819 100.54502015 -52.76254993 102.93478004 -54.59350586 105.86352539 C-55.18776367 106.8393457 -55.78202148 107.81516602 -56.39428711 108.82055664 C-57.0169043 109.55661133 -57.63952148 110.29266602 -58.28100586 111.05102539 C-63.00359794 111.05102539 -65.62323267 109.40204341 -69.53100586 107.05102539 C-70.50553711 106.47868164 -70.50553711 106.47868164 -71.49975586 105.89477539 C-73.09807687 104.95458656 -74.69017039 104.00382525 -76.28100586 103.05102539 C-75.61603714 99.69766934 -74.34272515 97.12037337 -72.65600586 94.15649414 C-72.11862793 93.20814697 -71.58125 92.2597998 -71.02758789 91.28271484 C-70.45121582 90.27813232 -69.87484375 89.2735498 -69.28100586 88.23852539 C-68.69303223 87.20622803 -68.10505859 86.17393066 -67.49926758 85.11035156 C-63.51223019 78.13385248 -59.44039399 71.21406048 -55.27319336 64.34399414 C-51.38261427 57.91309577 -47.59128005 51.42651965 -43.94897461 44.85180664 C-41.12108043 39.74904761 -38.23753526 34.67900323 -35.34350586 29.61352539 C-34.84399414 28.73631836 -34.34448242 27.85911133 -33.82983398 26.95532227 C-30.39357276 20.9385397 -26.89473635 14.9631396 -23.28100586 9.05102539 C-23.0809922 8.40201326 -22.88097855 7.75300114 -22.67490387 7.08432198 C-18.98489502 -2.15604968 -8.35035592 -0.07196629 0 0 Z " fill="#0F0F0F" transform="translate(95.281005859375,35.948974609375)"/>
<path d="M0 0 C5.64167965 2.52902881 10.81987533 5.63842974 16 9 C15.42742802 12.59733157 14.4966065 15.27324925 12.6640625 18.4140625 C12.18275879 19.24719971 11.70145508 20.08033691 11.20556641 20.9387207 C10.68397949 21.82519287 10.16239258 22.71166504 9.625 23.625 C9.08407715 24.55723389 8.5431543 25.48946777 7.98583984 26.44995117 C6.86717024 28.3766939 5.74556951 30.3017377 4.62109375 32.22509766 C3.15609014 34.73281317 1.70030466 37.2454827 0.25 39.76171875 C-5.91389256 50.45320396 -12.1381168 61.10973852 -18.36328125 71.765625 C-20.84836163 76.02114852 -23.32379146 80.28210539 -25.79296875 84.546875 C-26.41389404 85.61719971 -27.03481934 86.68752441 -27.67456055 87.7902832 C-28.8541157 89.82393915 -30.0315147 91.85884792 -31.20629883 93.89526367 C-31.74665771 94.8257251 -32.2870166 95.75618652 -32.84375 96.71484375 C-33.54274414 97.92321899 -33.54274414 97.92321899 -34.25585938 99.15600586 C-34.83142578 100.09452393 -35.40699219 101.03304199 -36 102 C-36.27592735 102.72782905 -36.55185471 103.45565809 -36.83614349 104.20554256 C-38.2320456 107.18750302 -39.44523566 108.89176896 -42 111 C-48.09935804 112.41987433 -54.15980403 112.23127626 -60.39453125 112.16455078 C-62.29701448 112.17675023 -64.19947644 112.19277723 -66.10189819 112.21234131 C-71.26346867 112.25335759 -76.42341953 112.23747163 -81.58501816 112.20892954 C-86.98746847 112.18613611 -92.38978054 112.20727744 -97.79223633 112.22140503 C-106.86467377 112.23777704 -115.93645176 112.21620617 -125.00878906 112.17333984 C-135.49643582 112.12435836 -145.98250802 112.14022408 -156.47011662 112.18977749 C-165.47591406 112.23062556 -174.48123759 112.23638007 -183.48709774 112.21282947 C-188.86532844 112.19880097 -194.24281911 112.19691813 -199.6210022 112.22665787 C-204.67782882 112.25266758 -209.73262668 112.23461056 -214.78923416 112.18260956 C-216.64435075 112.17071384 -218.49963824 112.17412039 -220.35468674 112.19397354 C-234.37682499 112.33020082 -234.37682499 112.33020082 -238.40274048 109.03094101 C-239.98048527 106.71975257 -241.02967508 104.61571282 -242 102 C-242.556875 100.948125 -243.11375 99.89625 -243.6875 98.8125 C-244.120625 97.884375 -244.55375 96.95625 -245 96 C-247.19356627 91.48148199 -249.63145741 87.40791472 -252.4921875 83.2890625 C-254.76981248 79.83132095 -256.66119537 76.18152341 -258.609375 72.53125 C-260.24669302 69.55096327 -262.04630944 66.78025196 -264 64 C-262.4976611 59.60029321 -259.59734566 58.30757212 -255.625 56.1875 C-254.48289062 55.56230469 -253.34078125 54.93710938 -252.1640625 54.29296875 C-249 53 -249 53 -246.765625 53.02734375 C-244.30460568 54.38308227 -243.49064189 55.92918938 -242.125 58.375 C-241.609375 59.28507812 -241.09375 60.19515625 -240.5625 61.1328125 C-240.046875 62.07898438 -239.53125 63.02515625 -239 64 C-238.525625 64.86367187 -238.05125 65.72734375 -237.5625 66.6171875 C-236.58807794 68.40186269 -235.61950296 70.18974051 -234.65625 71.98046875 C-233.41068379 74.25127696 -232.1428851 76.49841279 -230.84375 78.73828125 C-230.47620605 79.37282227 -230.10866211 80.00736328 -229.72998047 80.66113281 C-229.00345238 81.91128763 -228.27340494 83.15940498 -227.53955078 84.40527344 C-225 88.78039021 -225 88.78039021 -225 91 C-168.24 91 -111.48 91 -53 91 C-52.34 89.35 -51.68 87.7 -51 86 C-49.9622252 84.11324468 -48.88908836 82.24568367 -47.7890625 80.39453125 C-47.16547852 79.33959473 -46.54189453 78.2846582 -45.89941406 77.19775391 C-44.9592041 75.61486572 -44.9592041 75.61486572 -44 74 C-42.90225051 72.12972453 -41.80585054 70.25865617 -40.7109375 68.38671875 C-40.16824219 67.46004395 -39.62554687 66.53336914 -39.06640625 65.57861328 C-33.10076965 55.38157681 -27.21320671 45.14538288 -21.43896484 34.83862305 C-18.06397533 28.82675149 -14.57847049 22.89294348 -11 17 C-10.40832031 16.02546875 -9.81664062 15.0509375 -9.20703125 14.046875 C-8.74683594 13.28890625 -8.28664063 12.5309375 -7.8125 11.75 C-6.15713858 9.00547128 -4.66599854 6.32006846 -3.25 3.4375 C-2 1 -2 1 0 0 Z " fill="#161616" transform="translate(303,147)"/>
<path d="M0 0 C0.77848565 0.00223072 1.55697129 0.00446144 2.35904741 0.00675976 C3.1799903 0.00519977 4.00093318 0.00363978 4.84675312 0.00203252 C7.61905754 -0.00198094 10.39130794 0.00121349 13.16361284 0.00434887 C15.14240854 0.00299499 17.12120399 0.00121513 19.09999895 -0.00096118 C24.49033709 -0.00553701 29.88065618 -0.00374535 35.27099466 -0.0005821 C40.89865341 0.00194074 46.52631048 -0.00039582 52.15396929 -0.00196826 C61.60656831 -0.00379019 71.05915953 -0.00138306 80.51175737 0.00337231 C91.45727412 0.00881497 102.40277224 0.00705233 113.34828854 0.00154591 C122.72744151 -0.00298459 132.10658886 -0.00363609 141.48574257 -0.00101542 C147.09557796 0.0005477 152.70540459 0.00074014 158.31523943 -0.00255191 C163.58792863 -0.0054297 168.8605937 -0.00345664 174.13328028 0.00234234 C176.07437967 0.00367044 178.01548108 0.00327499 179.95657969 0.00107968 C182.59458837 -0.0016299 185.23251843 0.00174692 187.87052202 0.00675976 C189.03825049 0.00341368 189.03825049 0.00341368 190.22956944 0 C195.50063488 0.01959356 195.50063488 0.01959356 196.61478472 1.13374341 C196.71338603 2.53723076 196.74557408 3.94554818 196.74759722 5.35249341 C196.74888628 6.20198559 196.75017534 7.05147778 196.75150347 7.92671216 C196.74763628 8.82003247 196.74376909 9.71335278 196.73978472 10.63374341 C196.74365191 11.52706372 196.74751909 12.42038403 196.75150347 13.34077466 C196.74956987 14.61501294 196.74956987 14.61501294 196.74759722 15.91499341 C196.74646929 16.69938794 196.74534136 17.48378247 196.74417925 18.29194653 C196.61478472 20.13374341 196.61478472 20.13374341 195.61478472 21.13374341 C193.02467565 21.23374576 190.46116593 21.26815044 187.87052202 21.26072705 C187.04957914 21.26228704 186.22863626 21.26384703 185.38281631 21.26545429 C182.6105119 21.26946776 179.83826149 21.26627332 177.06595659 21.26313794 C175.08716089 21.26449182 173.10836545 21.26627168 171.12957048 21.268448 C165.73923235 21.27302382 160.34891326 21.27123216 154.95857477 21.26806891 C149.33091602 21.26554607 143.70325896 21.26788263 138.07560015 21.26945508 C128.62300112 21.271277 119.1704099 21.26886987 109.71781206 21.2641145 C98.77229532 21.25867184 87.82679719 21.26043448 76.8812809 21.2659409 C67.50212793 21.2704714 58.12298058 21.2711229 48.74382687 21.26850224 C43.13399147 21.26693911 37.52416485 21.26674667 31.91433001 21.27003872 C26.64164081 21.27291651 21.36897574 21.27094345 16.09628916 21.26514447 C14.15518976 21.26381637 12.21408836 21.26421182 10.27298975 21.26640713 C7.63498107 21.26911671 4.99705101 21.26573989 2.35904741 21.26072705 C1.58056177 21.26295777 0.80207612 21.26518849 0 21.26748681 C-5.27106544 21.24789325 -5.27106544 21.24789325 -6.38521528 20.13374341 C-6.48381659 18.73025605 -6.51600465 17.32193863 -6.51802778 15.91499341 C-6.51931684 15.06550122 -6.52060591 14.21600903 -6.52193403 13.34077466 C-6.51806684 12.44745434 -6.51419966 11.55413403 -6.51021528 10.63374341 C-6.51408247 9.74042309 -6.51794966 8.84710278 -6.52193403 7.92671216 C-6.52064497 7.07721997 -6.51935591 6.22772778 -6.51802778 5.35249341 C-6.51689985 4.56809887 -6.51577192 3.78370434 -6.51460981 2.97554028 C-6.23412002 -1.01694082 -3.32856158 0.0123729 0 0 Z " fill="#212121" transform="translate(73.38521528244019,141.8662565946579)"/>
<path d="M0 0 C2.60583391 -0.30330424 4.97608997 -0.40867354 7.58531189 -0.38768005 C8.77301385 -0.39575836 8.77301385 -0.39575836 9.9847098 -0.40399987 C12.65264114 -0.41837082 15.32008267 -0.41115343 17.98803711 -0.40405273 C19.89477439 -0.40975155 21.80150826 -0.4167139 23.70823669 -0.42485046 C28.89828567 -0.44285131 34.08816623 -0.44160049 39.2782371 -0.43590808 C43.60502366 -0.43282612 47.93177739 -0.43889759 52.25855929 -0.44494683 C62.46300914 -0.45901327 72.66737531 -0.45741324 82.87182617 -0.44604492 C93.41240305 -0.43456189 103.95272556 -0.44863773 114.49326891 -0.4754414 C123.53109152 -0.49756649 132.5688341 -0.50424298 141.60668188 -0.49836498 C147.00982695 -0.49498651 152.41280893 -0.49746931 157.81593132 -0.51461601 C162.89587987 -0.53003226 167.97545036 -0.52618899 173.05538368 -0.50731087 C174.92307841 -0.50361015 176.79080083 -0.50677631 178.65847015 -0.51719666 C181.20199019 -0.53030755 183.74424026 -0.51894836 186.28770447 -0.50120544 C187.03244567 -0.51081045 187.77718688 -0.52041546 188.544496 -0.53031152 C193.55303968 -0.45807939 193.55303968 -0.45807939 195.98201847 2.03132534 C196.31795238 2.68098798 196.65388628 3.33065062 197 4 C196.67 4.66 196.34 5.32 196 6 C195.01 4.515 195.01 4.515 194 3 C191.388112 2.69322543 189.01024499 2.58434373 186.39450073 2.60127258 C185.60058272 2.59462576 184.80666472 2.58797893 183.98868859 2.58113068 C181.3137826 2.56239655 178.63931981 2.5651129 175.96435547 2.56762695 C174.05274824 2.55861613 172.14114681 2.5482906 170.22955322 2.53674316 C165.02734315 2.50906712 159.82524238 2.49987431 154.6229682 2.49388909 C149.19099402 2.48453292 143.75910239 2.45833188 138.32717896 2.43388367 C128.03538175 2.39013887 117.7436005 2.36164099 107.45173848 2.33856028 C95.73723649 2.3115513 84.02281721 2.26763722 72.30837417 2.22227156 C48.20562756 2.12931102 24.10285501 2.05768263 0 2 C-0.28875 3.093125 -0.5775 4.18625 -0.875 5.3125 C-2 9 -2 9 -4 12 C-4.66 12 -5.32 12 -6 12 C-6 12.99 -6 13.98 -6 15 C-6.66 14.67 -7.32 14.34 -8 14 C-7.043419 12.22821947 -6.08467012 10.45760924 -5.125 8.6875 C-4.59132813 7.70136719 -4.05765625 6.71523438 -3.5078125 5.69921875 C-2 3 -2 3 0 0 Z " fill="#7F7F7F" transform="translate(77,37)"/>
<path d="M0 0 C19.8 0 39.6 0 60 0 C60 0.33 60 0.66 60 1 C40.53 1 21.06 1 1 1 C0.34 3.31 -0.32 5.62 -1 8 C-1.99 9.485 -1.99 9.485 -3 11 C-3.66 11 -4.32 11 -5 11 C-5 11.99 -5 12.98 -5 14 C-5.66 13.67 -6.32 13.34 -7 13 C-6.57847656 12.22914062 -6.15695313 11.45828125 -5.72265625 10.6640625 C-5.17480469 9.66117188 -4.62695312 8.65828125 -4.0625 7.625 C-3.51722656 6.62726562 -2.97195312 5.62953125 -2.41015625 4.6015625 C-1.5850241 3.07929654 -0.77435609 1.54871217 0 0 Z " fill="#424242" transform="translate(76,38)"/>
<path d="M0 0 C1.22376937 3.6713081 0.61664584 4.59653508 -1 8 C-1.99 9.485 -1.99 9.485 -3 11 C-3.66 11 -4.32 11 -5 11 C-5 11.99 -5 12.98 -5 14 C-5.66 13.67 -6.32 13.34 -7 13 C-6.57847656 12.22914062 -6.15695313 11.45828125 -5.72265625 10.6640625 C-5.17480469 9.66117188 -4.62695312 8.65828125 -4.0625 7.625 C-3.51722656 6.62726562 -2.97195312 5.62953125 -2.41015625 4.6015625 C-1.5850241 3.07929654 -0.77435609 1.54871217 0 0 Z " fill="#6F6F6F" transform="translate(76,38)"/>
<path d="M0 0 C0.33 0.66 0.66 1.32 1 2 C-0.98 4.97 -0.98 4.97 -3 8 C-5.66666667 6.66666667 -8.33333333 5.33333333 -11 4 C-7.79937313 2.39968656 -5.27728194 3.96826309 -2 5 C-1.34 3.35 -0.68 1.7 0 0 Z " fill="#8E8E8E" transform="translate(39,140)"/>
<path d="M0 0 C-1.64178265 4.77609498 -4.26546702 8.79382904 -7 13 C-8 11 -8 11 -7.29296875 8.65234375 C-6.92816406 7.75644531 -6.56335937 6.86054687 -6.1875 5.9375 C-5.83042969 5.03902344 -5.47335938 4.14054687 -5.10546875 3.21484375 C-3.75269982 0.50452579 -3.01782007 0 0 0 Z " fill="#898989" transform="translate(58,110)"/>
<path d="M0 0 C3.29078593 2.79716804 5.06305458 6.19528578 7 10 C6.67 10.66 6.34 11.32 6 12 C4.98829382 10.75945552 3.99102203 9.5071298 3 8.25 C2.443125 7.55390625 1.88625 6.8578125 1.3125 6.140625 C0 4 0 4 0 0 Z " fill="#949494" transform="translate(61,208)"/>
<path d="M0 0 C1 2 1 2 0.44140625 3.9453125 C0.15136719 4.66460937 -0.13867188 5.38390625 -0.4375 6.125 C-0.72496094 6.84945312 -1.01242187 7.57390625 -1.30859375 8.3203125 C-1.53675781 8.87460938 -1.76492188 9.42890625 -2 10 C-2.99 10 -3.98 10 -5 10 C-3.66511872 6.40608886 -2.03977277 3.24509304 0 0 Z " fill="#787878" transform="translate(283,180)"/>
<path d="M0 0 C1 3 1 3 1 5 C1.99 5 2.98 5 4 5 C4 5.66 4 6.32 4 7 C2.02 6.34 0.04 5.68 -2 5 C-1.125 1.125 -1.125 1.125 0 0 Z " fill="#8B8B8B" transform="translate(21,134)"/>
</svg>
